<?xml version="1.0" encoding="utf-8"?>
<!-- Generator: Adobe Illustrator 22.0.1, SVG Export Plug-In . SVG Version: 6.00 Build 0)  -->
<svg version="1.1" id="Layer_1" xmlns="http://www.w3.org/2000/svg" xmlns:xlink="http://www.w3.org/1999/xlink" x="0px" y="0px"
	 viewBox="0 0 200 80" style="enable-background:new 0 0 200 80;" xml:space="preserve">
<style type="text/css">
	.st0{fill:none;stroke:#BA9A67;stroke-width:2;stroke-linecap:round;stroke-miterlimit:10;}
	.st1{fill:none;stroke:#BA9A67;stroke-width:2;stroke-miterlimit:10;}
	.st2{fill-rule:evenodd;clip-rule:evenodd;fill:#BA9A67;}
</style>
<g>
	<line class="st0" x1="198" y1="5.1" x2="2" y2="5.1"/>
	<line class="st1" x1="93" y1="9.2" x2="27.5" y2="9.2"/>
	<line class="st0" x1="172.5" y1="9.2" x2="106.5" y2="9.2"/>
	<path class="st2" d="M87.1,18.1c5.9-1.3,11.8-7.8,11.7-7.5c-4.2,9.1-13.5,14.3-20.9,10.3c9.5-6.5,8.5-14.6,18.8-11.9
		C96.9,9,97.2,9,97.4,9.1C98,9.3,92.9,14.4,87.1,18.1z"/>
	<path class="st2" d="M112.9,18.1c-5.9-1.3-11.8-7.8-11.7-7.5c4.2,9.1,13.5,14.3,20.9,10.3c-9.5-6.5-8.5-14.6-18.8-11.9
		c-0.2,0.1-0.5,0.1-0.7,0.2C102,9.3,107.1,14.4,112.9,18.1z"/>
	<path class="st2" d="M107.7,25c-4.1-2.6-6.9-8.9-6.9-8.6c0.9,7.7,6.6,14,13.1,13.2c-5.5-7.3-2.8-12.8-11.1-13.8
		c-0.2,0-0.4,0-0.6-0.1C101.8,15.7,104.3,20.8,107.7,25z"/>
	<path class="st2" d="M92.4,25c4.1-2.6,6.9-8.9,6.9-8.6c-0.9,7.7-6.6,14-13.1,13.2c5.5-7.3,2.8-12.8,11.1-13.8c0.2,0,0.4,0,0.6-0.1
		C98.3,15.7,95.8,20.8,92.4,25z"/>
	<path class="st2" d="M97.8,31.3c1.7,3.1,2.2,5.7,2.2,5.7s0.5-2.5,2.2-5.6c1.4-2.5,3.5-9.8-1.1-13.5L100,28.9l-1-11.1
		C94.4,21.5,96.5,28.8,97.8,31.3z"/>
	<path class="st2" d="M120.2,11.8c-0.5,0.3-0.6,1-0.3,1.5c0.3,0.5,1,0.6,1.5,0.3c0.5-0.3,0.6-1,0.3-1.5
		C121.4,11.6,120.7,11.5,120.2,11.8z"/>
	<path class="st2" d="M116.8,11.3c-0.6,0.4-0.8,1.2-0.3,1.8s1.2,0.8,1.8,0.3s0.8-1.2,0.3-1.8C118.3,11,117.4,10.9,116.8,11.3z"/>
	<path class="st2" d="M79.7,11.8c0.5,0.3,0.6,1,0.3,1.5c-0.3,0.5-1,0.6-1.5,0.3c-0.5-0.3-0.6-1-0.3-1.5
		C78.6,11.6,79.3,11.5,79.7,11.8z"/>
	<path class="st2" d="M83.1,11.3c0.6,0.4,0.8,1.2,0.3,1.8s-1.2,0.8-1.8,0.3s-0.8-1.2-0.3-1.8C81.7,11,82.5,10.9,83.1,11.3z"/>
</g>
</svg>
