<?xml version="1.0" encoding="utf-8"?>
<!-- Generator: Adobe Illustrator 22.0.1, SVG Export Plug-In . SVG Version: 6.00 Build 0)  -->
<svg version="1.1" id="Layer_1" xmlns="http://www.w3.org/2000/svg" xmlns:xlink="http://www.w3.org/1999/xlink" x="0px" y="0px"
	 viewBox="0 0 600 80" style="enable-background:new 0 0 600 80;" xml:space="preserve">
<style type="text/css">
	.st0{fill-rule:evenodd;clip-rule:evenodd;fill:#BA9A67;}
	.st1{fill:#BA9A67;}
	.st2{fill:none;stroke:#BA9A67;stroke-width:2;stroke-linecap:round;stroke-miterlimit:10;}
	.st3{fill:none;stroke:#BA9A67;stroke-width:2;stroke-miterlimit:10;}
</style>
<g>
	<g>
		<g>
			<path class="st0" d="M286,28.8c-2.1-1.2-2.3-3.7-3.7-5.6c-1.7-2.3-4.3-3.7-7.1-3.7c-5.7,0.1-10.1,5-7.2,12.2
				c0.9,2.3,3.1,4.7,5.3,5.8c4.5,2.3,9.6,2.9,15.2-0.7c2.8-1.8,5.1-4.3,6.3-7.3c2.3-5.4,1.4-11.7-2.1-16.4c-1.7-2.3-4.1-4.1-6.7-5.3
				c-4.7-2.1-10.5-2.9-18.1,0.7c-2.4,1.2-4.8,2.7-6.9,4.4c-5.1,4.2-9.4,9.1-14,13.9c-7.6,7.9-16.6,14.4-28,13.7
				c-6.4-0.4-12.6-5.2-12.7-11.9c-0.1-6,5.7-10.8,11.5-10.9c2.8,0,5.5,1.1,7.6,3c1.1,0.9,2.2,2.2,2.1,3.8c-0.1,1.7-1.7,1.9-2.9,1
				c-0.9-0.7-6.3-9.9-14.4-3.7c-5.2,4-2.7,12.4,2.4,15.1c5.5,2.9,12,2.2,17.9-0.5c1.4-0.6,2.7-1.4,3.9-2.2c2.8-1.9,5.4-4.1,7.7-6.5
				c4.5-4.6,8.5-9.7,13.2-14.1c8.4-8,20.2-14.2,31.7-8.9c11.3,5.2,15.9,20.1,7.5,30c-4,4.7-10.9,7.3-17,6.1
				c-6.1-1.2-11.3-6.3-11.6-12.7c-0.3-6.8,5.8-11.9,12.5-10.8c3,0.5,5.9,2.3,7.5,4.8C286.8,23.4,289.2,29,286,28.8
				C286.1,28.9,286.8,28.9,286,28.8z"/>
			<path class="st0" d="M233.4,14.2c2.1,0.1,2.9,3.2,3.1,4.8c0.3,2.7,0,5.6-0.9,8.2c-1.1,3.1-3.3,5.8-5.9,7.8
				c-2.3,1.8-6.8,3.9-9.9,3.3c1.1-0.5,2.5-0.6,3.7-1.1c1.3-0.5,2.4-1.2,3.5-1.9c2.2-1.5,4.1-3.9,5.1-6.3c1.2-2.8,1-5.1,1-8.1
				C233,19.6,230.8,14.4,233.4,14.2C234.2,14.2,233.1,14.2,233.4,14.2z"/>
			<path class="st0" d="M236.8,31.2c2.3-2.9,4.1-6,4.5-9.8c0.2-1.5-1.4-9.3,2.3-7.8c2.9,1.2,0.7,7.3,0,9.2c-0.6,1.7-1.7,3.5-2.9,4.9
				C240.3,28.2,237.3,31.6,236.8,31.2C237.1,30.9,236.8,31.2,236.8,31.2z"/>
		</g>
		<path class="st1" d="M203,28.5c0-2,0.6-3.9,1.7-5.4c0.1-0.1,0.1-0.2,0-0.3c-0.1-0.1-0.2-0.1-0.3,0l-7.6,4.6H0v2.4h196.8l7.6,4.7
			c0.1,0.1,0.2,0,0.3,0c0.1-0.1,0.1-0.2,0-0.3C203.6,32.4,203,30.5,203,28.5z"/>
	</g>
	<g>
		<g>
			<path class="st0" d="M314,28.8c2.1-1.2,2.3-3.7,3.7-5.6c1.7-2.3,4.3-3.7,7.1-3.7c5.7,0.1,10.1,5,7.2,12.2
				c-0.9,2.3-3.1,4.7-5.3,5.8c-4.5,2.3-9.6,2.9-15.2-0.7c-2.8-1.8-5.1-4.3-6.3-7.3c-2.3-5.4-1.4-11.7,2.1-16.4
				c1.7-2.3,4.1-4.1,6.7-5.3c4.7-2.1,10.5-2.9,18.1,0.7c2.4,1.2,4.8,2.7,6.9,4.4c5.1,4.2,9.4,9.1,14,13.9c7.6,7.9,16.6,14.4,28,13.7
				c6.4-0.4,12.6-5.2,12.7-11.9c0.1-6-5.7-10.8-11.5-10.9c-2.8,0-5.5,1.1-7.6,3c-1.1,0.9-2.2,2.2-2.1,3.8c0.1,1.7,1.7,1.9,2.9,1
				c0.9-0.7,6.3-9.9,14.4-3.7c5.2,4,2.7,12.4-2.4,15.1c-5.5,2.9-12,2.2-17.9-0.5c-1.4-0.6-2.7-1.4-3.9-2.2c-2.8-1.9-5.4-4.1-7.7-6.5
				c-4.5-4.6-8.5-9.7-13.2-14.1c-8.4-8-20.2-14.2-31.7-8.9c-11.3,5.2-15.9,20.1-7.5,30c4,4.7,10.9,7.3,17,6.1
				c6.1-1.2,11.3-6.3,11.6-12.7c0.3-6.8-5.8-11.9-12.5-10.8c-3,0.5-5.9,2.3-7.5,4.8C313.2,23.4,310.8,29,314,28.8
				C313.9,28.9,313.2,28.9,314,28.8z"/>
			<path class="st0" d="M366.6,14.2c-2.1,0.1-2.9,3.2-3.1,4.8c-0.3,2.7,0,5.6,0.9,8.2c1.1,3.1,3.3,5.8,5.9,7.8
				c2.3,1.8,6.8,3.9,9.9,3.3c-1.1-0.5-2.5-0.6-3.7-1.1c-1.3-0.5-2.4-1.2-3.5-1.9c-2.2-1.5-4.1-3.9-5.1-6.3c-1.2-2.8-1-5.1-1-8.1
				C367,19.6,369.2,14.4,366.6,14.2C365.8,14.2,366.9,14.2,366.6,14.2z"/>
			<path class="st0" d="M363.2,31.2c-2.3-2.9-4.1-6-4.5-9.8c-0.2-1.5,1.4-9.3-2.3-7.8c-2.9,1.2-0.7,7.3,0,9.2
				c0.6,1.7,1.7,3.5,2.9,4.9C359.7,28.2,362.7,31.6,363.2,31.2C362.9,30.9,363.2,31.2,363.2,31.2z"/>
		</g>
		<path class="st1" d="M397,28.5c0-2-0.6-3.9-1.7-5.4c-0.1-0.1-0.1-0.2,0-0.3c0.1-0.1,0.2-0.1,0.3,0l7.6,4.6H600v2.4H403.2l-7.6,4.7
			c-0.1,0.1-0.2,0-0.3,0c-0.1-0.1-0.1-0.2,0-0.3C396.4,32.4,397,30.5,397,28.5z"/>
	</g>
</g>
<g>
	<line class="st2" x1="398" y1="46.1" x2="202" y2="46.1"/>
	<line class="st3" x1="293" y1="51.2" x2="227.5" y2="51.2"/>
	<line class="st2" x1="372.5" y1="51.2" x2="306.5" y2="51.2"/>
	<path class="st0" d="M287.1,60.1c5.9-1.3,11.8-7.8,11.7-7.5c-4.2,9.1-13.5,14.3-20.9,10.3c9.5-6.5,8.5-14.6,18.8-11.9
		c0.2,0.1,0.5,0.1,0.7,0.2C298,51.3,292.9,56.4,287.1,60.1z"/>
	<path class="st0" d="M312.9,60.1c-5.9-1.3-11.8-7.8-11.7-7.5c4.2,9.1,13.5,14.3,20.9,10.3c-9.5-6.5-8.5-14.6-18.8-11.9
		c-0.2,0.1-0.5,0.1-0.7,0.2C302,51.3,307.1,56.4,312.9,60.1z"/>
	<path class="st0" d="M307.7,67c-4.1-2.6-6.9-8.9-6.9-8.6c0.9,7.7,6.6,14,13.1,13.2c-5.5-7.3-2.8-12.8-11.1-13.8
		c-0.2,0-0.4,0-0.6-0.1C301.8,57.7,304.3,62.8,307.7,67z"/>
	<path class="st0" d="M292.4,67c4.1-2.6,6.9-8.9,6.9-8.6c-0.9,7.7-6.6,14-13.1,13.2c5.5-7.3,2.8-12.8,11.1-13.8c0.2,0,0.4,0,0.6-0.1
		C298.3,57.7,295.8,62.8,292.4,67z"/>
	<path class="st0" d="M297.8,73.3c1.7,3.1,2.2,4.7,2.2,4.7s0.5-1.5,2.2-4.6c1.4-2.5,3.5-9.8-1.1-13.5L300,70.9l-1-11.1
		C294.4,63.5,296.5,70.8,297.8,73.3z"/>
	<path class="st0" d="M320.2,53.8c-0.5,0.3-0.6,1-0.3,1.5c0.3,0.5,1,0.6,1.5,0.3c0.5-0.3,0.6-1,0.3-1.5
		C321.4,53.6,320.7,53.5,320.2,53.8z"/>
	<path class="st0" d="M316.8,53.3c-0.6,0.4-0.8,1.2-0.3,1.8c0.4,0.6,1.2,0.8,1.8,0.3s0.8-1.2,0.3-1.8
		C318.3,53,317.4,52.9,316.8,53.3z"/>
	<path class="st0" d="M279.7,53.8c0.5,0.3,0.6,1,0.3,1.5c-0.3,0.5-1,0.6-1.5,0.3c-0.5-0.3-0.6-1-0.3-1.5
		C278.6,53.6,279.3,53.5,279.7,53.8z"/>
	<path class="st0" d="M283.1,53.3c0.6,0.4,0.8,1.2,0.3,1.8c-0.4,0.6-1.2,0.8-1.8,0.3s-0.8-1.2-0.3-1.8
		C281.7,53,282.5,52.9,283.1,53.3z"/>
</g>
</svg>
