<?xml version="1.0" encoding="utf-8"?>
<!-- Generator: Adobe Illustrator 22.0.1, SVG Export Plug-In . SVG Version: 6.00 Build 0)  -->
<svg version="1.1" id="Layer_1" xmlns="http://www.w3.org/2000/svg" xmlns:xlink="http://www.w3.org/1999/xlink" x="0px" y="0px"
	 viewBox="0 0 200 25" style="enable-background:new 0 0 200 25;" xml:space="preserve">
<style type="text/css">
	.st0{fill:none;stroke:#BA9A67;stroke-width:2;stroke-linecap:round;stroke-miterlimit:10;}
	.st1{fill:none;stroke:#BA9A67;stroke-width:2;stroke-miterlimit:10;}
	.st2{fill-rule:evenodd;clip-rule:evenodd;fill:#BA9A67;}
</style>
<g>
	<line class="st0" x1="30" y1="23" x2="171.1" y2="23"/>
	<line class="st1" x1="105.6" y1="20" x2="152.8" y2="20"/>
	<line class="st0" x1="48.4" y1="20" x2="95.9" y2="20"/>
	<path class="st2" d="M109.8,13.6c-4.2,0.9-8.5,5.6-8.4,5.4c3-6.5,9.7-10.3,15-7.4c-6.8,4.7-6.1,10.5-13.5,8.6
		c-0.2,0-0.3-0.1-0.5-0.1C102,20,105.7,16.2,109.8,13.6z"/>
	<path class="st2" d="M91.3,13.6c4.2,0.9,8.5,5.6,8.4,5.4c-3-6.5-9.7-10.3-15-7.4c6.8,4.7,6.1,10.5,13.5,8.6c0.2,0,0.3-0.1,0.5-0.1
		C99.1,20,95.4,16.2,91.3,13.6z"/>
	<path class="st2" d="M95,8.6c2.9,1.9,5,6.4,5,6.2c-0.7-5.5-4.8-10.1-9.4-9.5c4,5.2,2,9.2,8,9.9c0.1,0,0.3,0,0.4,0
		C99.3,15.3,97.5,11.6,95,8.6z"/>
	<path class="st2" d="M106,8.6c-2.9,1.9-5,6.4-5,6.2c0.7-5.5,4.8-10.1,9.4-9.5c-4,5.2-2,9.2-8,9.9c-0.1,0-0.3,0-0.4,0
		C101.8,15.3,103.6,11.6,106,8.6z"/>
	<path class="st2" d="M102.1,4.1c-1.2-2.3-1.5-4.1-1.5-4.1s-0.4,1.8-1.6,4.1c-1,1.8-2.5,7.1,0.8,9.7l0.8-8l0.7,8
		C104.6,11.2,103.1,5.9,102.1,4.1z"/>
	<path class="st2" d="M86,18.1c0.3-0.2,0.4-0.7,0.2-1.1c-0.2-0.3-0.7-0.4-1.1-0.2c-0.3,0.2-0.4,0.7-0.2,1.1
		C85.2,18.3,85.6,18.4,86,18.1z"/>
	<path class="st2" d="M88.4,18.5c0.4-0.3,0.5-0.9,0.2-1.3c-0.3-0.4-0.9-0.5-1.3-0.2c-0.4,0.3-0.5,0.9-0.2,1.3S88,18.8,88.4,18.5z"/>
	<path class="st2" d="M115.1,18.1c-0.3-0.2-0.4-0.7-0.2-1.1c0.2-0.3,0.7-0.4,1.1-0.2c0.3,0.2,0.4,0.7,0.2,1.1
		C116,18.3,115.5,18.4,115.1,18.1z"/>
	<path class="st2" d="M112.7,18.5c-0.4-0.3-0.5-0.9-0.2-1.3c0.3-0.4,0.9-0.5,1.3-0.2c0.4,0.3,0.5,0.9,0.2,1.3
		C113.7,18.7,113.1,18.8,112.7,18.5z"/>
</g>
</svg>
