<?xml version="1.0" encoding="utf-8"?>
<!-- Generator: Adobe Illustrator 22.0.1, SVG Export Plug-In . SVG Version: 6.00 Build 0)  -->
<svg version="1.1" id="Layer_1" xmlns="http://www.w3.org/2000/svg" xmlns:xlink="http://www.w3.org/1999/xlink" x="0px" y="0px"
	 viewBox="0 0 200 25" style="enable-background:new 0 0 200 25;" xml:space="preserve">
<style type="text/css">
	.st0{fill:none;stroke:#BA9A67;stroke-width:2;stroke-linecap:round;stroke-miterlimit:10;}
	.st1{fill:none;stroke:#BA9A67;stroke-width:2;stroke-miterlimit:10;}
	.st2{fill-rule:evenodd;clip-rule:evenodd;fill:#BA9A67;}
</style>
<g>
	<line class="st0" x1="171.1" y1="2" x2="30" y2="2"/>
	<line class="st1" x1="95.5" y1="5" x2="48.4" y2="5"/>
	<line class="st0" x1="152.8" y1="5" x2="105.2" y2="5"/>
	<path class="st2" d="M91.3,11.4c4.2-0.9,8.5-5.6,8.4-5.4c-3,6.5-9.7,10.3-15,7.4c6.8-4.7,6.1-10.5,13.5-8.6c0.2,0,0.3,0.1,0.5,0.1
		C99.1,5,95.4,8.8,91.3,11.4z"/>
	<path class="st2" d="M109.8,11.4c-4.2-0.9-8.5-5.6-8.4-5.4c3,6.5,9.7,10.3,15,7.4c-6.8-4.7-6.1-10.5-13.5-8.6
		c-0.2,0-0.3,0.1-0.5,0.1C102,5,105.7,8.8,109.8,11.4z"/>
	<path class="st2" d="M106.1,16.4c-2.9-1.9-5-6.4-5-6.2c0.7,5.5,4.8,10.1,9.4,9.5c-4-5.2-2-9.2-8-9.9c-0.1,0-0.3,0-0.4,0
		C101.8,9.6,103.7,13.3,106.1,16.4z"/>
	<path class="st2" d="M95.1,16.4c2.9-1.9,5-6.4,5-6.2c-0.7,5.5-4.8,10.1-9.4,9.5c4-5.2,2-9.2,8-9.9c0.1,0,0.3,0,0.4,0
		C99.4,9.6,97.5,13.3,95.1,16.4z"/>
	<path class="st2" d="M99,20.9c1.2,2.3,1.5,4.1,1.5,4.1s0.4-1.8,1.6-4.1c1-1.8,2.5-7.1-0.8-9.7l-0.8,8l-0.7-8
		C96.5,13.8,98,19.1,99,20.9z"/>
	<path class="st2" d="M115.1,6.8c-0.3,0.2-0.4,0.7-0.2,1.1c0.2,0.3,0.7,0.4,1.1,0.2c0.3-0.2,0.4-0.7,0.2-1.1
		C115.9,6.7,115.5,6.6,115.1,6.8z"/>
	<path class="st2" d="M112.7,6.5c-0.4,0.3-0.5,0.9-0.2,1.3s0.9,0.5,1.3,0.2c0.4-0.3,0.5-0.9,0.2-1.3C113.7,6.3,113.1,6.2,112.7,6.5z
		"/>
	<path class="st2" d="M86,6.8c0.3,0.2,0.4,0.7,0.2,1.1s-0.7,0.4-1.1,0.2c-0.3-0.2-0.4-0.7-0.2-1.1C85.2,6.7,85.6,6.6,86,6.8z"/>
	<path class="st2" d="M88.4,6.5c0.4,0.3,0.5,0.9,0.2,1.3c-0.3,0.4-0.9,0.5-1.3,0.2c-0.4-0.3-0.5-0.9-0.2-1.3
		C87.4,6.3,88,6.2,88.4,6.5z"/>
</g>
</svg>
