<?xml version="1.0" encoding="utf-8"?>
<!-- Generator: Adobe Illustrator 22.0.1, SVG Export Plug-In . SVG Version: 6.00 Build 0)  -->
<svg version="1.1" id="Layer_1" xmlns="http://www.w3.org/2000/svg" xmlns:xlink="http://www.w3.org/1999/xlink" x="0px" y="0px"
	 viewBox="0 0 200 50" style="enable-background:new 0 0 200 50;" xml:space="preserve">
<style type="text/css">
	.st0{fill:none;stroke:#BA9A67;stroke-width:2;stroke-linecap:round;stroke-miterlimit:10;}
	.st1{fill:none;stroke:#BA9A67;stroke-width:2;stroke-miterlimit:10;}
	.st2{fill-rule:evenodd;clip-rule:evenodd;fill:#BA9A67;}
</style>
<g>
	<line class="st0" x1="2" y1="47" x2="198" y2="47"/>
	<line class="st1" x1="107" y1="42.8" x2="172.5" y2="42.8"/>
	<line class="st0" x1="27.5" y1="42.8" x2="93.5" y2="42.8"/>
	<path class="st2" d="M112.9,34c-5.9,1.3-11.8,7.8-11.7,7.5c4.2-9.1,13.5-14.3,20.9-10.3c-9.5,6.5-8.5,14.6-18.8,11.9
		c-0.2-0.1-0.5-0.1-0.7-0.2C102,42.8,107.1,37.6,112.9,34z"/>
	<path class="st2" d="M87.1,34c5.9,1.3,11.8,7.8,11.7,7.5c-4.2-9.1-13.5-14.3-20.9-10.3c9.5,6.5,8.5,14.6,18.8,11.9
		c0.2-0.1,0.5-0.1,0.7-0.2C98,42.8,92.9,37.6,87.1,34z"/>
	<path class="st2" d="M92.3,27c4.1,2.6,6.9,8.9,6.9,8.6c-0.9-7.7-6.6-14-13.1-13.2c5.5,7.3,2.8,12.8,11.1,13.8c0.2,0,0.4,0,0.6,0.1
		C98.2,36.4,95.7,31.2,92.3,27z"/>
	<path class="st2" d="M107.6,27c-4.1,2.6-6.9,8.9-6.9,8.6c0.9-7.7,6.6-14,13.1-13.2c-5.5,7.3-2.8,12.8-11.1,13.8
		c-0.2,0-0.4,0-0.6,0.1C101.7,36.4,104.2,31.2,107.6,27z"/>
	<path class="st2" d="M102.2,20.7c-1.7-3.1-2.2-5.7-2.2-5.7s-0.5,2.5-2.2,5.6c-1.4,2.5-3.5,9.8,1.1,13.5l1.1-11.1l1,11.1
		C105.6,30.6,103.5,23.2,102.2,20.7z"/>
	<path class="st2" d="M79.8,40.3c0.5-0.3,0.6-1,0.3-1.5c-0.3-0.5-1-0.6-1.5-0.3c-0.5,0.3-0.6,1-0.3,1.5
		C78.6,40.5,79.3,40.6,79.8,40.3z"/>
	<path class="st2" d="M83.2,40.7c0.6-0.4,0.8-1.2,0.3-1.8c-0.4-0.6-1.2-0.8-1.8-0.3c-0.6,0.4-0.8,1.2-0.3,1.8
		C81.7,41,82.6,41.1,83.2,40.7z"/>
	<path class="st2" d="M120.3,40.3c-0.5-0.3-0.6-1-0.3-1.5c0.3-0.5,1-0.6,1.5-0.3c0.5,0.3,0.6,1,0.3,1.5
		C121.4,40.5,120.7,40.6,120.3,40.3z"/>
	<path class="st2" d="M116.9,40.7c-0.6-0.4-0.8-1.2-0.3-1.8c0.4-0.6,1.2-0.8,1.8-0.3c0.6,0.4,0.8,1.2,0.3,1.8
		C118.3,41,117.5,41.1,116.9,40.7z"/>
</g>
</svg>
